# xmcd
#
# Track frame offsets:
#	182
#	10627
#	19485
#	30192
#	41595
#	49722
#	59045
#	70517
#	82437
#	91570
#	102452
#	111312
#	126570
#	137260
#	145685
#	158565
#	172795
#	184052
#	192357
#	201470
#
# Disc length: 2828 seconds
#
# Revision: 2
# Processed by: cddbd v1.5.1PL2 Copyright (c) Steve Scherf et al.
# Submitted via: dBpowerAMP V4.0
#
DISCID=0f0b0a14
DTITLE=Roger Miller - Legends
DYEAR=1994
DGENRE=Country
TTITLE0=Engine Engine No. 9
TTITLE1=England Swings
TTITLE2=Kansas City Star
TTITLE3=King Of The Road
TTITLE4=Dang Me
TTITLE5=Chug-A-Lug
TTITLE6=Husbands And Wives
TTITLE7=Walking In The Sunshine
TTITLE8=My Uncle Used To Love Me But She Died
TTITLE9=When Two Worlds Collide
TTITLE10=You Can't Rollerskate In A Buffalo Herd
TTITLE11=Me And Bobby McGee
TTITLE12=Please Release Me
TTITLE13=In The Summertime
TTITLE14=The Last Word In Lonesome
TTITLE15=My Elusive Dreams
TTITLE16=Everything's Coming Up Roses
TTITLE17=Do-Wacka-Do
TTITLE18=Billy Bayou
TTITLE19=Burning Bridges
EXTD=
EXTT0=
EXTT1=
EXTT2=
EXTT3=
EXTT4=
EXTT5=
EXTT6=
EXTT7=
EXTT8=
EXTT9=
EXTT10=
EXTT11=
EXTT12=
EXTT13=
EXTT14=
EXTT15=
EXTT16=
EXTT17=
EXTT18=
EXTT19=
PLAYORDER=
